<?xml version="1.0" standalone="no"?>
<!DOCTYPE svg PUBLIC "-//W3C//DTD SVG 20010904//EN"
 "http://www.w3.org/TR/2001/REC-SVG-20010904/DTD/svg10.dtd">
<svg version="1.0" xmlns="http://www.w3.org/2000/svg"
 width="965.000000pt" height="965.000000pt" viewBox="0 0 965.000000 965.000000"
 preserveAspectRatio="xMidYMid meet">
<metadata>
Created by potrace 1.14, written by Peter Selinger 2001-2017
</metadata>
<g transform="translate(0.000000,965.000000) scale(0.100000,-0.100000)"
fill="#000000" stroke="none">
<path d="M4510 9643 c-700 -67 -1270 -369 -1697 -900 -114 -142 -211 -292
-234 -362 -3 -8 -48 -17 -135 -26 -644 -68 -1208 -364 -1602 -843 -513 -624
-684 -1367 -493 -2147 53 -214 154 -458 255 -615 25 -39 46 -74 46 -79 0 -5
-21 -53 -46 -107 -177 -379 -249 -689 -248 -1069 0 -233 16 -363 74 -591 108
-426 296 -764 595 -1073 375 -386 818 -622 1335 -710 138 -24 385 -43 492 -40
l77 3 80 -104 c414 -542 925 -856 1546 -952 183 -28 536 -30 725 -4 274 37
492 102 725 215 238 117 433 258 635 461 152 153 253 282 370 476 l97 159 89
8 c253 22 600 122 842 242 716 355 1196 1016 1318 1815 22 144 25 499 6 640
-50 351 -163 676 -333 955 l-55 90 32 70 c85 186 157 429 191 645 25 160 25
518 -1 680 -25 162 -87 399 -139 532 -124 317 -280 559 -516 802 -207 212
-414 363 -676 492 -314 155 -695 244 -1044 244 l-106 0 -31 48 c-102 157 -326
398 -485 524 -354 280 -789 462 -1225 513 -114 13 -366 18 -464 8z m-1708
-1293 c205 -11 328 -29 485 -70 536 -143 978 -440 1316 -884 l83 -110 -62
-140 c-72 -164 -113 -281 -148 -421 -156 -624 -65 -1244 267 -1817 31 -54 52
-98 47 -98 -4 0 -55 60 -111 133 -234 300 -489 517 -799 681 -327 172 -740
276 -1095 276 l-81 0 -51 88 c-254 431 -367 863 -350 1342 11 309 78 598 207
890 51 115 67 140 94 140 11 0 101 -5 198 -10z m4533 -2235 c492 -77 975 -325
1335 -685 111 -111 280 -321 280 -348 0 -17 -38 -90 -100 -196 -156 -265 -417
-536 -695 -725 -349 -238 -714 -367 -1145 -406 l-65 -6 -45 58 c-274 357 -541
581 -905 759 -317 155 -616 228 -982 241 -95 3 -173 10 -173 15 0 13 56 121
102 196 112 184 347 447 534 598 377 303 786 461 1339 518 83 8 424 -4 520
-19z m-2559 -1323 c19 -12 111 -182 169 -308 148 -329 209 -623 209 -1014 0
-298 -27 -470 -116 -740 -170 -511 -585 -1026 -1045 -1297 -271 -159 -617
-276 -938 -318 l-120 -15 -17 22 c-10 13 -58 104 -108 203 -125 252 -192 456
-237 730 -14 87 -18 165 -18 370 0 228 3 276 24 390 70 394 232 752 488 1080
376 482 913 788 1563 890 101 16 131 17 146 7z"/>
</g>
</svg>
