<?xml version="1.0" encoding="UTF-8"?><svg id="b" xmlns="http://www.w3.org/2000/svg" viewBox="0 0 222.9 177.86"><g id="c"><g id="d"><path d="M111.63,26.2c4.04-4.04,8.09-8.07,12.13-12.11C128.45,9.4,133.14,4.7,137.83,0c.19,0,.37,0,.56,0,.29.31.37.67.37,1.1-.01,5.59-.01,11.19,0,16.78,0,1.05-.36,1.94-1.09,2.67-8.61,8.61-17.23,17.21-25.85,25.81-.04.04-.11.05-.16.08-.04-.04-.08-.09-.13-.13-.18-.34-.18-.71-.18-1.08,0-5.93,0-11.85,0-17.78,0-.43-.04-.87.28-1.23Z" style="fill:#eb3729; stroke-width:0px;"/><path d="M85.46,0c3.92,3.91,7.83,7.82,11.75,11.73,4.57,4.57,9.13,9.15,13.69,13.73.22.22.4.46.6.69.07.28-.1.47-.27.65-2.85,3.17-5.94,6.11-8.95,9.13-.2.2-.42.49-.79.28-1.3-1.28-2.6-2.55-3.89-3.84-3.92-3.91-7.82-7.83-11.75-11.72-.89-.88-1.31-1.89-1.3-3.14.02-5.41.01-10.82,0-16.23,0-.47.04-.91.35-1.29.19,0,.37,0,.56,0Z" style="fill:#eb3729; stroke-width:0px;"/><path d="M222.9,177.71c-6.56,0-13.12-.01-19.68.02-.77,0-.97-.19-.97-.96.03-8.35.03-16.71,0-25.06,0-.7.14-.94.9-.94,6.22.03,12.44.03,18.66,0,.73,0,.95.19.92.92-.06,1.2-.05,2.41,0,3.62.03.65-.18.83-.83.83-4.21-.03-8.42.02-12.63-.04-.93-.01-1.15.27-1.09,1.14.08,1.17.05,2.35,0,3.53-.03.65.16.84.82.83,3.65-.03,7.3,0,10.96-.03.8,0,1.1.17,1.04,1.02-.08,1.17-.05,2.35,0,3.53.03.66-.21.83-.85.83-3.68-.03-7.37,0-11.05-.03-.73,0-.96.18-.92.92.06,1.36.02,2.72.02,4.08,0,.36-.02.67.51.67,4.73-.03,9.47-.04,14.2-.06v5.2Z" style="fill:#707279; stroke-width:0px;"/><path d="M86.74,86.36c-2.23-2.23-4.5-4.43-6.68-6.7-.61-.63-.88-.5-1.41.04-4.93,4.96-9.89,9.89-14.82,14.86-.98.99-2.07,1.45-3.47,1.44-5.32-.03-10.65-.01-15.97-.02-.47,0-1.05.17-1.29-.45-.21-.56.28-.83.59-1.15,8.28-8.26,16.56-16.53,24.86-24.77.57-.57.6-.84,0-1.42-8.24-8.17-16.45-16.37-24.67-24.57-.2-.2-.39-.39-.59-.59-.24-.24-.33-.52-.2-.84.12-.29.38-.38.68-.38.19,0,.37,0,.56,0,5.45,0,10.89.01,16.34-.01,1.19,0,2.18.38,3,1.21,8.54,8.53,17.07,17.07,25.6,25.61.08.08.13.2.19.3-.41.29-.89.22-1.35.22-5.75,0-11.5,0-17.25,0-.3,0-.61-.08-.9.07.02.22.2.32.32.44,2.75,2.76,5.51,5.51,8.26,8.26.71.71.75.68,1.49.02,2.92-2.58,5.56-5.45,8.35-8.17.33-.32.65-.67,1.1-.82.19.15.39.29.56.46,5.19,5.19,10.38,10.38,15.57,15.57.38.38.87.72.79,1.38-.33.3-.75.26-1.14.26-5.8,0-11.61,0-17.41,0-.4,0-.81.04-1.15-.25Z" style="fill:#eb3729; stroke-width:0px;"/><path d="M129.31,94c-2.2,2.21-4.38,4.46-6.63,6.62-.68.65-.56.95.04,1.54,4.97,4.92,9.9,9.88,14.87,14.81.94.93,1.38,1.98,1.37,3.3-.03,5.35,0,10.71-.02,16.06,0,.47.18,1.05-.45,1.29-.56.21-.83-.28-1.15-.6-8.27-8.28-16.54-16.55-24.78-24.85-.56-.57-.83-.6-1.42,0-8.16,8.21-16.34,16.4-24.52,24.59-.22.22-.44.44-.66.65-.24.24-.52.34-.84.2-.3-.13-.38-.39-.38-.68,0-.19,0-.37,0-.56,0-5.45.01-10.89,0-16.34,0-1.23.42-2.22,1.28-3.07,8.44-8.41,16.87-16.83,25.3-25.24.15-.15.33-.26.5-.4.4.41.26.93.26,1.41.01,5.62,0,11.25.01,16.87,0,.33-.07.68.07,1.01.31.06.42-.22.58-.37,2.67-2.66,5.34-5.33,8-7.99.35-.35.73-.68.66-1.25.01-.3.21-.51.41-.7,2.17-2.07,4.14-4.33,6.26-6.44.34-.34.69-.89,1.31-.4.09.19.04.37-.07.54Z" style="fill:#eb3729; stroke-width:0px;"/><path d="M93.63,63.33c-.4-.06-.62-.38-.88-.64-8.17-8.15-16.33-16.31-24.51-24.45-.89-.88-1.31-1.89-1.31-3.14,0-5.51-.01-11.01-.03-16.52,0-.41-.03-.83.42-1.04.48-.21.74.17,1.02.44,8.51,8.51,17.02,17.01,25.53,25.52.04.04.08.1.11.15.31.33.26.74.26,1.14,0,5.81.01,11.61-.01,17.42,0,.42.28,1.13-.62,1.12Z" style="fill:#c52f34; stroke-width:0px;"/><path d="M129.48,74.3c.54-.08.86.29,1.18.61,8.24,8.22,16.47,16.43,24.7,24.65.81.8,1.2,1.76,1.2,2.91,0,5.48.01,10.95.02,16.43,0,.44.17.98-.38,1.23-.56.25-.84-.22-1.16-.54-8.53-8.53-17.06-17.07-25.58-25.6-.24-.87-.25-1.76-.25-2.65,0-5.21,0-10.42,0-15.63,0-.48-.12-1,.26-1.41Z" style="fill:#c52f34; stroke-width:0px;"/><path d="M106.44,86.54c.07.5-.25.8-.56,1.11-8.24,8.25-16.48,16.49-24.72,24.74-.78.78-1.7,1.19-2.82,1.19-5.54,0-11.07.02-16.61.03-.25,0-.51.03-.74-.05-.47-.16-.59-.53-.38-.96.09-.19.28-.32.44-.47,8.46-8.46,16.93-16.92,25.39-25.38.09-.09.19-.15.29-.23.2-.11.42-.07.64-.07,6.12,0,12.23,0,18.35,0,.24,0,.5-.06.72.09Z" style="fill:#c52f34; stroke-width:0px;"/><path d="M117.41,51.25c-.12-.54.21-.87.54-1.2,8.27-8.27,16.54-16.55,24.81-24.82.76-.76,1.66-1.11,2.75-1.11,5.51.01,11.02,0,16.53,0,.44,0,.99-.2,1.22.38.22.55-.25.84-.57,1.16-8.41,8.4-16.81,16.79-25.22,25.19-.13.13-.26.27-.38.4-.35.34-.8.29-1.22.29-5.74,0-11.48,0-17.22,0-.43,0-.87.03-1.23-.29Z" style="fill:#c52f34; stroke-width:0px;"/><path d="M154.69,68.9c8.51,8.48,17.01,16.95,25.52,25.43.33.33.76.63.51,1.17-.23.51-.74.35-1.15.35-5.51,0-11.02,0-16.53.02-1.16,0-2.1-.39-2.91-1.2-8.44-8.45-16.89-16.9-25.33-25.35-.13-.13-.23-.28-.35-.42.32-.33.74-.26,1.13-.26,5.99,0,11.98,0,17.97,0,.39,0,.81-.06,1.13.27Z" style="fill:#eb3729; stroke-width:0px;"/><path d="M178.22,160.42c-1.16,3.36-2.28,6.59-3.39,9.82-.77,2.25-1.56,4.49-2.3,6.75-.18.56-.46.76-1.06.74-1.36-.05-2.72-.02-4.08,0-.38,0-.62-.07-.76-.48-2.96-8.77-5.93-17.53-8.95-26.44,2.09,0,4.07,0,6.06,0,.55,0,.48.5.58.82,1.67,5.43,3.32,10.86,4.97,16.29.1.32.22.64.4,1.17.69-2.05,1.31-3.92,1.93-5.79,1.29-3.9,2.6-7.79,3.84-11.7.22-.7.54-.91,1.24-.87,1.08.06,2.17.06,3.25,0,.69-.04,1.01.17,1.24.87,1.8,5.55,3.64,11.08,5.48,16.62.08.23.17.46.32.87.75-2.45,1.45-4.73,2.15-7.01,1.06-3.48,2.15-6.96,3.17-10.45.2-.67.51-.85,1.17-.83,1.45.05,2.91.06,4.36,0,.82-.04.98.13.7.94-1.83,5.31-3.63,10.63-5.43,15.95-1.03,3.04-2.08,6.07-3.07,9.12-.22.69-.49,1.01-1.28.95-1.17-.08-2.35-.07-3.53,0-.74.04-1.07-.18-1.31-.9-1.76-5.2-3.57-10.39-5.36-15.58-.08-.23-.17-.46-.31-.82Z" style="fill:#707279; stroke-width:0px;"/><path d="M144.53,58.7c2.57-2.59,5.13-5.18,7.71-7.76,2.62-2.63,5.27-5.23,7.87-7.88.91-.92,1.93-1.34,3.22-1.33,5.41.03,10.83.02,16.24.03.41,0,.92-.17,1.15.35.25.55-.19.85-.52,1.17-8.5,8.47-17,16.94-25.5,25.42-.19.06-.34-.02-.48-.13-2.94-3.01-6.11-5.78-9.02-8.82-.28-.3-.73-.51-.67-1.04Z" style="fill:#eb3729; stroke-width:0px;"/><path d="M69.08,167.26c.2-.35.1-.66.1-.95,0-4.89.02-9.78,0-14.67,0-.7.18-.9.88-.87,1.45.06,2.91.04,4.36,0,.54-.01.67.17.67.69-.01,8.54-.01,17.08,0,25.62,0,.48-.13.65-.63.63-1.36-.03-2.72-.04-4.08,0-.55.02-.75-.34-1.01-.68-3.9-5.12-7.8-10.23-11.7-15.35-.2-.27-.42-.53-.64-.81-.28.26-.15.55-.15.8,0,5.04-.02,10.09.01,15.13,0,.75-.21.94-.93.91-1.36-.06-2.73-.06-4.08,0-.74.03-.92-.2-.92-.93.03-5.85.02-11.7.02-17.55,0-2.57.02-5.14-.01-7.7,0-.61.17-.8.79-.78,1.27.05,2.54.06,3.81,0,.7-.03,1.12.21,1.54.76,3.74,4.96,7.52,9.9,11.28,14.85.22.29.45.56.7.88Z" style="fill:#707279; stroke-width:0px;"/><path d="M105.51,164.24c0-4.21.01-8.42-.01-12.63,0-.62.12-.87.8-.84,1.48.05,2.97.05,4.46,0,.59-.02.72.18.72.74-.02,3.03,0,6.07-.03,9.1,0,.69.13.96.9.95,3.09-.05,6.19-.04,9.29,0,.65,0,.84-.18.83-.83-.03-3,0-6-.03-9.01,0-.69.12-.99.9-.95,1.39.07,2.79.06,4.18,0,.73-.03.93.18.93.92-.03,4.73-.02,9.47-.02,14.2,0,3.65-.02,7.3.02,10.95,0,.69-.16.91-.87.88-1.45-.06-2.91-.05-4.36,0-.63.02-.77-.2-.77-.79.03-3,0-6,.03-9.01,0-.7-.14-.96-.91-.95-3.09.04-6.19.04-9.29,0-.66,0-.83.19-.82.83.03,3-.01,6,.03,9.01.01.76-.22.93-.93.9-1.39-.05-2.79-.05-4.18,0-.69.03-.88-.16-.88-.86.04-4.21.02-8.42.02-12.63Z" style="fill:#707279; stroke-width:0px;"/><path d="M90.57,177.71c-3.93.61-7.31-.67-10.38-3.02q-.94-.72-.16-1.63c.74-.87,1.5-1.73,2.2-2.64.41-.54.69-.66,1.29-.18,1.92,1.53,4.08,2.53,6.57,2.74,1.1.09,2.17.02,3.19-.4.85-.35,1.44-.93,1.52-1.92.09-1.05-.33-1.79-1.25-2.28-1.32-.71-2.76-1.07-4.19-1.46-1.43-.39-2.86-.77-4.24-1.33-2.92-1.2-4.66-3.23-4.73-6.53-.08-3.44,1.3-5.99,4.38-7.53,2.94-1.48,6.04-1.36,9.15-.65,2.01.46,3.83,1.36,5.51,2.57.43.32.45.53.15.94-.78,1.08-1.54,2.17-2.26,3.28-.34.53-.59.62-1.15.24-1.74-1.16-3.61-2.01-5.73-2.22-.88-.09-1.73,0-2.55.3-.86.33-1.46.89-1.55,1.89-.09,1.05.32,1.8,1.25,2.27,1.53.78,3.2,1.13,4.83,1.57,1.46.4,2.9.85,4.26,1.55,2.47,1.27,3.95,3.17,4.05,6.05.11,3.15-.94,5.69-3.69,7.4-1.07.66-2.19,1.09-3.5.98-.98-.08-1.98-.02-2.97-.02Z" style="fill:#707279; stroke-width:0px;"/><path d="M.02,164.15c0-4.15.01-8.29-.01-12.44,0-.67.1-.95.88-.95,6.31.04,12.63.03,18.94,0,.63,0,.87.12.84.8-.06,1.27-.05,2.54,0,3.8.03.65-.17.84-.82.83-4.3-.03-8.6,0-12.91-.03-.75,0-1.03.16-.99.96.07,1.26.07,2.54,0,3.8-.04.79.14,1.05,1,1.04,3.68-.05,7.37,0,11.05-.04.8,0,.99.24.96.99-.06,1.2-.06,2.41,0,3.62.03.7-.19.89-.88.89-3.71-.03-7.43,0-11.14-.03-.77,0-.99.19-.98.97.05,2.81-.01,5.63.04,8.45.01.76-.23.93-.94.9-1.39-.05-2.79-.05-4.18,0-.68.03-.89-.14-.88-.86.04-4.24.02-8.48.02-12.72Z" style="fill:#707279; stroke-width:0px;"/><path d="M117.41,51.25c6.56,0,13.12,0,19.67,0,2.2,2.22,4.41,4.44,6.61,6.66.23.24.44.5.66.75.1.33-.14.52-.33.71-3.01,3.02-6.02,6.05-9.06,9.04-.09.09-.19.15-.3.22-.12.06-.25.08-.37.11-.34-.31-.69-.61-1.01-.94-5.05-5.05-10.1-10.1-15.15-15.15-.39-.39-.87-.74-.72-1.4Z" style="fill:#eb3729; stroke-width:0px;"/><path d="M94.2,43.66c2.43-2.43,4.87-4.85,7.3-7.28.43,0,.64.33.9.58,2.86,2.85,5.71,5.7,8.56,8.55.26.26.49.55.67.88,0,0,.03.04.03.04-.2.23-.39.48-.6.69-5.15,5.15-10.31,10.3-15.47,15.45-.3.3-.55.68-1.02.76-.2.1-.38.07-.45-.15-.06-.2-.03-.43-.03-.65,0-6.05,0-12.11,0-18.16,0-.24-.07-.5.1-.72Z" style="fill:#eb3729; stroke-width:0px;"/><path d="M129.28,93.4c-.47-.07-.72.27-1,.55-2.01,2.07-4.01,4.14-6.02,6.2-.23.24-.5.45-.75.68-.38.13-.58-.16-.77-.38-2.55-2.91-5.43-5.49-8.11-8.27-.29-.3-.71-.53-.65-1.05.2-.23.39-.47.6-.69,5.11-5.11,10.22-10.21,15.34-15.31.38-.38.71-.88,1.37-.83.16.22.09.48.09.72,0,5.89,0,11.78,0,17.67,0,.24.07.5-.1.71Z" style="fill:#eb3729; stroke-width:0px;"/><path d="M111.98,91.13c1.64,1.68,3.28,3.35,4.93,5.03,1.53,1.56,3.07,3.12,4.6,4.68.31.37.37.66-.05,1.08-3.08,3.04-6.13,6.11-9.19,9.16-.08.08-.19.14-.44.34,0-6.8,0-13.45,0-20.1.05-.06.11-.12.16-.18Z" style="fill:#c53034; stroke-width:0px;"/><path d="M111.63,46.4c-.81-.58-1.44-1.35-2.13-2.04-2.67-2.65-5.33-5.31-8-7.97.01-.06,0-.12,0-.18.38-.05.56-.36.8-.59,2.29-2.28,4.59-4.56,6.86-6.87.82-.83,1.57-1.73,2.35-2.6.05,0,.1,0,.13.04,0,6.73,0,13.47,0,20.2Z" style="fill:#c52f34; stroke-width:0px;"/><path d="M134.51,68.52c3.34-3.23,6.64-6.49,9.85-9.85.06,0,.12.02.17.04,2.47,2.72,5.24,5.14,7.84,7.74.68.68,1.33,1.37,1.99,2.06.01.43-.33.29-.53.29-6.26,0-12.53,0-18.79,0-.19,0-.53.16-.53-.27Z" style="fill:#c52f34; stroke-width:0px;"/><path d="M134.51,68.52c.26.33.63.18.95.18,5.99,0,11.97,0,17.96,0,.32,0,.69.15.94-.2.11.06.22.13.34.19,0,.07,0,.14,0,.21-6.75,0-13.49,0-20.24,0-.05-.05-.1-.1-.16-.15.07-.08.14-.15.21-.23Z" style="fill:#dc6954; stroke-width:0px;"/><path d="M94.2,43.66c0,6.29,0,12.58,0,18.87,0,.32-.12.71.38.8-.32.24-.63.21-.94,0,.56-.12.36-.57.36-.9,0-6.26,0-12.52,0-18.77.07,0,.13,0,.2.01Z" style="fill:#e16a53; stroke-width:0px;"/><path d="M106.44,86.54c-6.57,0-13.14-.01-19.7-.02,0-.05,0-.11,0-.16,6.57,0,13.13,0,19.7,0,0,.06,0,.13,0,.19Z" style="fill:#e1694e; stroke-width:0px;"/><path d="M129.28,93.4c0-6.37,0-12.74,0-19.1.07,0,.13,0,.2,0,0,6.56-.02,13.13-.03,19.69h-.07s-.07,0-.07,0l-.04-.59Z" style="fill:#e76d52; stroke-width:0px;"/><path d="M89.52,68.94c-2.81,2.87-5.57,5.78-8.56,8.46-.37.33-.74.67-1.05,1.05-.42.51-.72.46-1.18,0-2.56-2.6-5.14-5.17-7.73-7.74-.54-.54-1.11-1.05-1.67-1.57.04-.07.07-.15.11-.22,6.68,0,13.36,0,20.05,0,0,0,.03.03.03.03Z" style="fill:#c52f34; stroke-width:0px;"/><path d="M160.19,177.43c-3.73-8.78-7.47-17.56-11.19-26.34-.18-.44-.45-.51-.85-.5-1.36.02-2.73.05-4.08-.01-.66-.03-.9.24-1.13.79-2.79,6.6-5.61,13.18-8.41,19.77-.92,2.15-1.82,4.31-2.78,6.57,1.97,0,3.82-.01,5.67,0,.48,0,.53-.33.65-.64.62-1.51,1.26-3.02,1.84-4.55.21-.54.48-.75,1.08-.74,3.31.03,6.62.03,9.93,0,.61,0,.86.23,1.06.76.58,1.53,1.23,3.03,1.83,4.55.16.42.36.63.86.62,1.82-.03,3.65-.01,5.53-.01-.01-.16,0-.22-.03-.27ZM142.95,166.57c-.43,0-.56-.12-.39-.54,1.11-2.69,2.21-5.39,3.39-8.26,1.23,3.01,2.4,5.85,3.6,8.79-2.28,0-4.44,0-6.6,0Z" style="fill:#707279; stroke-width:0px;"/><path d="M45.73,171.92c-2.91-6.84-5.84-13.68-8.72-20.53-.26-.62-.58-.83-1.23-.8-1.27.05-2.54.05-3.8,0-.62-.02-.91.16-1.16.75-1.6,3.85-3.25,7.67-4.88,11.5-1.98,4.66-3.95,9.32-5.96,13.96-.36.83-.17.95.65.92,1.42-.06,2.85-.06,4.27,0,.65.03.92-.22,1.13-.79.58-1.53,1.24-3.03,1.83-4.55.17-.45.41-.6.88-.6,3.37.02,6.74.03,10.12,0,.58,0,.8.23.99.72.59,1.53,1.22,3.03,1.84,4.55.14.33.22.68.74.67,1.88-.03,3.76-.01,5.77-.01-.85-2-1.65-3.9-2.46-5.79ZM36.78,166.57c-1.98-.03-3.95-.02-5.93,0-.43,0-.63-.04-.41-.56,1.09-2.59,2.14-5.18,3.21-7.78.03-.07.11-.13.24-.28.53,1.28,1.04,2.49,1.54,3.7.59,1.42,1.15,2.86,1.76,4.28.19.46.19.65-.4.64Z" style="fill:#707279; stroke-width:0px;"/></g></g></svg>