<?xml version="1.0" encoding="UTF-8"?><svg id="b" xmlns="http://www.w3.org/2000/svg" viewBox="0 0 178.15 178.15"><g id="c"><g id="d"><path d="M.22.02C59.26.02,118.3.02,177.33,0c.67,0,.82.15.82.82-.02,58.84-.02,117.68,0,176.51,0,.67-.15.82-.82.82-59.04-.02-118.07-.02-177.11-.02-.17-.31-.08-.64-.08-.96,0-58.73,0-117.46,0-176.19,0-.32-.08-.65.08-.96Z" style="fill:#ee4730; stroke-width:0px;"/><path d="M.22.02v178.12c-.05-.04-.19.09-.18-.09,0-.24,0-.47,0-.71C.05,118.49.05,59.66.06.82c0-.26-.21-.6.17-.8Z" style="fill:#fff; stroke-width:0px;"/><path d="M39.86,71.78c1.1,0,2.2.05,3.29-.02.77-.05.96.21.84.95-.47,2.93-.9,5.86-1.34,8.79-.16,1.08-.33,2.17-.46,3.26-.07.57-.29.91-.87,1.17-4.12,1.87-8.46,2.53-12.92,2.21-6.13-.43-10.2-3.83-12.48-9.39-3.34-8.14-.38-18.33,6.73-23.48,3.41-2.47,7.28-3.47,11.44-3.54,3.48-.05,6.84.54,10.05,1.89,1.08.45,1.09.45.65,1.5-.32.77-.68,1.52-.96,2.3-.22.63-.48.8-1.15.51-2.35-1.02-4.8-1.57-7.39-1.73-4.68-.29-8.45,1.43-11.28,5.03-4,5.08-4.85,10.73-2.17,16.69,1.9,4.23,6.12,6.39,10.72,5.76,1.27-.17,2.5-.46,3.72-.85.46-.15.68-.38.73-.85.22-1.82.45-3.65.7-5.47.06-.45-.04-.69-.54-.64-.06,0-.12,0-.18,0q-2.03-.05-1.69-2.09t2.32-1.98c.74,0,1.48,0,2.22,0Z" style="fill:#fff; stroke-width:0px;"/><path d="M102.4,82.28c-1.28,1.33-2.29,2.75-3.64,3.88-1.95,1.63-4.14,2.38-6.68,1.87-1.58-.31-2.65-1.26-3.29-2.7-1.02-2.3-.96-4.68-.49-7.07,1.01-5.14,3.53-9.31,7.91-12.29,2.34-1.59,4.93-2.11,7.7-1.8.82.09,1.03-.18,1.13-.98.48-4,1.04-7.99,1.54-11.99.07-.53.28-.61.73-.61,1.33,0,2.67,0,4-.04.52-.02.67.15.59.66-.91,6.55-1.8,13.09-2.71,19.64-.74,5.34-1.5,10.68-2.19,16.03-.09.71-.34.87-.99.85-1.21-.04-2.43-.03-3.65,0-.54.01-.71-.12-.62-.71.25-1.57.43-3.16.64-4.74Z" style="fill:#fff; stroke-width:0px;"/><path d="M56.79,64.13c4.46-.02,8.02,2.92,8.94,7.62,1.15,5.81-1.64,12.14-6.6,14.98-4.03,2.31-9.21,1.89-12.24-1.04-1.9-1.83-2.75-4.16-2.78-6.73-.05-5.83,1.98-10.61,7.26-13.6,1.57-.89,3.32-1.24,5.41-1.23Z" style="fill:#fff; stroke-width:0px;"/><path d="M88.06,74.91c-.52,5.22-2.57,9.52-7.4,12.09-3.89,2.07-8.9,1.49-11.76-1.33-1.87-1.84-2.71-4.19-2.76-6.75-.09-4.8,1.39-9.02,5.17-12.16,3.06-2.54,6.64-3.36,10.42-2.14,3.8,1.23,5.63,4.22,6.19,8.06.11.73.18,1.47.14,2.24Z" style="fill:#fff; stroke-width:0px;"/><path d="M89,126.1c24.9,0,49.81,0,74.71,0,.15,0,.3,0,.44,0,.65-.03,1.15.19,1.13.92-.01.73-.52.92-1.17.9-.74-.02-1.48,0-2.22,0-49.22,0-98.43,0-147.65,0-.24,0-.47,0-.71,0-.58-.02-.86-.36-.87-.91,0-.52.29-.82.81-.87.26-.02.53-.02.8-.02,24.9,0,49.81,0,74.71,0h0Z" style="fill:#fef9f8; stroke-width:0px;"/><path d="M91.8,111.39c.39-2.77.75-5.34,1.11-7.92.43-3.05.85-6.11,1.26-9.16.06-.45.25-.6.69-.59.71.03,1.43.05,2.13-.01.69-.06.78.26.7.84-.68,4.72-1.34,9.45-2.01,14.17-.44,3.14-.91,6.28-1.31,9.42-.08.66-.29.83-.96.9-1.32.14-2.04-.37-2.73-1.49-3.37-5.48-6.83-10.9-10.26-16.34-.11-.17-.23-.33-.41-.6-.41,1.1-.41,2.16-.56,3.19-.69,4.78-1.36,9.57-2.01,14.36-.09.65-.29.95-.99.86-.47-.06-.95-.01-1.42-.01-1.11,0-1.12,0-.97-1.08,1.11-7.84,2.23-15.67,3.31-23.51.08-.62.33-.69.84-.7,2.38-.05,2.36-.05,3.66,2.01,3.19,5.07,6.39,10.13,9.58,15.19.06.1.14.19.35.47Z" style="fill:#fffffe; stroke-width:0px;"/><path d="M148.24,64.67c-.31,1.21-.61,2.32-.87,3.43-.1.42-.4.37-.69.37-1.01,0-2.02.04-3.02-.01-.66-.03-.85.23-.93.85-.64,4.61-1.13,9.23-1.97,13.81-.26,1.39-.7,2.75-1.04,4.13-.09.38-.29.52-.69.52-1.33-.02-2.67-.01-4,0-.43,0-.62-.13-.46-.58,1.83-5.17,2.05-10.62,2.84-15.98.1-.7.18-1.41.3-2.11.08-.46-.06-.65-.55-.64-.98.03-1.96,0-2.93.01-.42,0-.63-.12-.44-.57.01-.03.01-.06.02-.09.26-1,.24-2.27.86-2.93.61-.66,1.9-.18,2.89-.21.5-.02.7-.13.77-.67.31-2.29.64-4.58,1.35-6.79,1.1-3.43,3.08-6,6.76-6.86,2.17-.51,4.35-.44,6.51.13.46.12.72.25.54.83-.27.88-.44,1.78-.62,2.68-.09.46-.27.59-.73.42-.41-.15-.86-.21-1.3-.27-3.62-.5-5.51,1.07-6.45,4.59-.47,1.76-.61,3.62-.91,5.43-.09.52.23.51.57.51,1.36,0,2.72,0,4.17,0Z" style="fill:#fff; stroke-width:0px;"/><path d="M152.59,88.16c-4.49.02-7.46-2.64-8.06-7.22-.88-6.65,2.55-12.99,8.58-15.85,1.44-.68,2.95-1.03,4.56-.96,4.86.21,6.25,4.22,4.49,7.78-1.12,2.26-3.19,3.46-5.35,4.48-1.96.92-4.07,1.44-6.2,1.81-.68.12-.9.41-.92,1.03-.03.96.05,1.89.32,2.81.53,1.83,1.62,2.58,3.51,2.33,2.51-.33,4.45-1.7,6.06-3.56.36-.42.57-.51.93-.06.3.37.66.68.99,1.02.91.92.93.95,0,1.9-2.1,2.14-4.36,4.04-7.49,4.44-.15.02-.29.05-.44.05-.33,0-.65,0-.98,0Z" style="fill:#fffffe; stroke-width:0px;"/><path d="M116.12,87.72c-2.01,0-4.03,0-6.04,0-1.09,0-1.1,0-.95-1.07.54-3.93,1.1-7.86,1.65-11.79.81-5.87,1.61-11.74,2.42-17.61.28-2.05.6-4.1.87-6.16.05-.41.19-.56.6-.55,1.42.02,2.84.02,4.27,0,.5,0,.57.21.51.65-.4,2.85-.77,5.7-1.16,8.54-.92,6.72-1.85,13.44-2.78,20.16-.11.76-.19,1.53-.33,2.29-.14.74,0,1.04.87,1.02,2.34-.07,4.68,0,7.02-.04.71-.01.85.18.72.86-.2.98-.33,1.99-.41,2.99-.05.6-.3.72-.84.72-2.13-.02-4.27,0-6.4,0Z" style="fill:#fff; stroke-width:0px;"/><path d="M108.77,118.84c-1.96,0-3.91,0-5.87,0q-1.04,0-.89-1.11c.53-3.72,1.06-7.45,1.59-11.17.58-4.08,1.16-8.15,1.72-12.23.08-.58.27-.79.88-.79,3.91.03,7.82.02,11.73,0,.62,0,.89.17.72.81-.2.77.12,1.82-.45,2.28-.56.45-1.54.12-2.33.13-2.07.02-4.15.03-6.22,0-.57,0-.84.13-.91.76-.22,1.94-.46,3.89-.8,5.81-.15.83.12.93.83.92,1.72-.04,3.44,0,5.15-.02.5,0,.64.09.57.64-.35,2.59-.33,2.6-2.9,2.6-1.16,0-2.31.02-3.47-.01-.56-.02-.76.18-.83.74-.29,2.23-.61,4.46-.97,6.68-.1.61.04.77.64.76,2.76-.02,5.51.02,8.27-.03.8-.01.94.23.8.95-.44,2.28-.42,2.29-2.73,2.28-1.51,0-3.02,0-4.53,0Z" style="fill:#fefdfc; stroke-width:0px;"/><path d="M154.97,92.9c1.92,0,3.77.34,5.53,1.14.56.25.81.5.43,1.12-.38.63-.49,1.58-1.02,1.92-.57.36-1.33-.36-2.03-.53-1.59-.39-3.18-.74-4.82-.36-2.53.59-3.43,2.72-2.1,4.97.9,1.52,2.34,2.5,3.66,3.59.91.76,1.8,1.54,2.62,2.4,3.86,4.06,1.89,9.28-1.76,11.37-3.47,1.99-7.07,1.65-10.64.35-1.95-.71-1.92-.79-.94-2.63q.58-1.09,1.76-.6c1.83.76,3.71,1.24,5.71,1.05,1.76-.17,3.21-.9,3.92-2.62.69-1.66.21-3.13-.95-4.43-1.09-1.23-2.37-2.24-3.59-3.31-.76-.66-1.48-1.37-2.15-2.12-1.86-2.1-2.37-4.52-1.39-7.12,1-2.65,3.26-3.7,5.89-4.08.61-.09,1.24-.08,1.86-.11Z" style="fill:#fefefe; stroke-width:0px;"/><path d="M133.07,92.92c1.92,0,3.77.32,5.52,1.13.52.24.74.5.42,1.08-.36.65-.48,1.57-1,1.94-.59.41-1.33-.33-2.03-.51-1.47-.38-2.95-.71-4.47-.44-3.02.53-4,2.98-2.22,5.46,1,1.39,2.42,2.35,3.71,3.43.86.73,1.69,1.49,2.45,2.32,3.75,4.09,1.56,9.3-2.03,11.27-3.59,1.98-7.26,1.53-10.89.12-1.54-.6-1.52-.65-.74-2.14.72-1.38.72-1.37,2.14-.83,2.13.81,4.31,1.37,6.59.74,3.02-.83,4.06-3.94,2.18-6.45-1.31-1.75-3.15-2.95-4.71-4.45-1.36-1.31-2.63-2.68-3.04-4.6-.8-3.75,1.42-7.01,5.29-7.83.93-.2,1.88-.24,2.83-.25Z" style="fill:#fefefe; stroke-width:0px;"/><path d="M28.22,96.93c-1.24,0-2.49,0-3.73,0-.37,0-.58.04-.64.5-.26,2.06-.54,4.11-.86,6.16-.11.71.15.85.8.83,1.39-.04,2.79.02,4.18-.03.66-.02.77.22.73.82-.18,2.43-.16,2.43-2.58,2.43-.95,0-1.9.04-2.84-.01-.6-.03-.83.19-.91.76-.36,2.76-.75,5.52-1.12,8.28-.04.26-.07.53-.12.79-.28,1.57-.28,1.58-1.93,1.57-.71,0-1.64.3-2.06-.13-.43-.44.04-1.33.14-2.01,1.02-7.34,2.06-14.67,3.06-22.01.11-.84.36-1.17,1.28-1.16,3.53.06,7.05.04,10.58.01.66,0,.85.16.79.85-.19,2.36-.16,2.36-2.55,2.36-.74,0-1.48,0-2.22,0Z" style="fill:#fffefe; stroke-width:0px;"/><path d="M61.78,93.73c2.81,0,5.63.02,8.44-.01.65,0,.78.17.67.81-.42,2.39-.39,2.4-2.81,2.4-1.36,0-2.73.02-4.09-.01-.54-.01-.74.12-.82.71-.96,6.86-1.97,13.72-2.94,20.58-.09.63-.29.88-.94.81-.56-.06-1.12-.01-1.69-.01-1.31,0-1.31,0-1.12-1.33.95-6.66,1.88-13.32,2.87-19.97.12-.8-.17-.8-.76-.8-1.9.02-3.79-.02-5.69.03-.67.02-.84-.23-.69-.82.04-.17.06-.35.08-.53q.26-1.88,2.2-1.87c2.43,0,4.86,0,7.29,0Z" style="fill:#fffdfe; stroke-width:0px;"/><path d="M127.29,87.72c-.56,0-1.13-.06-1.69.01-.82.1-.93-.27-.82-.96.33-2.17.62-4.34.93-6.51.69-4.9,1.4-9.8,2.06-14.71.09-.66.26-.93.97-.89,1.21.06,2.43.03,3.65.01.51,0,.73.05.64.68-.86,5.93-1.68,11.86-2.51,17.79-.18,1.32-.39,2.64-.53,3.96-.05.5-.25.65-.73.63-.65-.03-1.3,0-1.96,0Z" style="fill:#fff; stroke-width:0px;"/><path d="M40.26,119.01c-.5-.06-1.34.29-1.74-.14-.35-.39.04-1.18.13-1.79.73-5.28,1.48-10.56,2.22-15.84.32-2.26.67-4.51.95-6.78.07-.58.27-.76.82-.74.83.03,1.66.03,2.49,0,.45-.01.61.09.54.61-.91,6.6-1.8,13.21-2.69,19.81-.19,1.38-.4,2.76-.53,4.14-.05.57-.22.8-.79.74-.41-.04-.83,0-1.38,0Z" style="fill:#fffefe; stroke-width:0px;"/><path d="M134.88,55.23c0,1.93-1.44,3.5-3.25,3.52-1.61.02-2.75-1.11-2.74-2.72,0-1.8,1.63-3.46,3.37-3.46,1.49,0,2.61,1.14,2.62,2.66Z" style="fill:#fffefe; stroke-width:0px;"/><path d="M165.33,116.98c0,1.31-1.01,2.35-2.26,2.34-1.26-.01-2.28-1.07-2.29-2.35,0-1.21,1.04-2.26,2.25-2.27,1.33-.01,2.29.94,2.29,2.27Z" style="fill:#feece9; stroke-width:0px;"/><path d="M104.17,69.17c-.3,5.62-3.53,9.56-6.89,13.43-.35.4-.81.69-1.3.92-1.2.55-2.13.1-2.36-1.21-.34-1.92.03-3.79.54-5.62.82-2.92,2.11-5.59,4.36-7.71,1.36-1.28,2.94-1.57,4.69-1.06.67.2,1.38.43.96,1.26Z" style="fill:#ef4830; stroke-width:0px;"/><path d="M60.43,73.98c-.18,3.35-.89,6.52-3.25,9.08-1.71,1.86-4.83,1.98-6.25.24-.74-.9-1.03-2.02-1.14-3.14-.35-3.66.32-7.08,2.5-10.11.51-.71,1.16-1.29,1.95-1.65,2.59-1.2,4.78-.67,5.75,2.32.34,1.06.42,2.15.43,3.26Z" style="fill:#ef482f; stroke-width:0px;"/><path d="M71.71,78.37c.16-3.22.81-6.28,3.05-8.79.42-.47.91-.86,1.45-1.16,2.77-1.54,5.45-.25,6,3,.66,3.93-.05,7.62-2.38,10.91-1.08,1.53-2.56,2.32-4.49,2.15-1.46-.12-2.42-.87-2.95-2.2-.51-1.25-.74-2.56-.67-3.92Z" style="fill:#ef482f; stroke-width:0px;"/><path d="M150.41,74.59c.91-2.59,2.07-4.82,4.25-6.35.64-.45,1.36-.71,2.16-.72.83,0,1.21.34,1.2,1.17-.01,1.3-.62,2.34-1.57,3.16-1.69,1.47-3.68,2.3-6.04,2.73Z" style="fill:#ef4930; stroke-width:0px;"/><path d="M164.1,118.27c-.53.71-1.2.65-1.86.26-.78-.46-1.05-1.41-.69-2.24.34-.78,1.15-1.22,1.94-1.03.74.18,1.34.98,1.28,1.8-.03.5-.13,1-.68,1.23-.47-.4-.64-.9-.45-1.5.08-.27.16-.55-.19-.66-.31-.09-.68-.15-.93.1-.23.23-.11.55-.05.84.01.06.05.15.08.15,1-.36,1.04.71,1.56,1.05Z" style="fill:#e05947; stroke-width:0px;"/><path d="M164.1,118.27c-.46.16-.65-.08-.73-.49-.04-.22-.13-.41-.38-.41-.31,0-.25.26-.28.45-.03.23,0,.53-.36.47-.35-.06-.2-.37-.21-.58-.02-.32,0-.65,0-.97,0-.92.67-1.33,1.52-.91.26.13.5.42.37.63-.42.65.06,1.23.06,1.84,0,0,.02-.02.02-.02Z" style="fill:#feefeb; stroke-width:0px;"/><path d="M163.43,116.49c-.02.25-.19.34-.4.36-.2.02-.32-.07-.33-.29-.01-.23.02-.41.3-.41.24,0,.37.12.43.34Z" style="fill:#da675b; stroke-width:0px;"/></g></g></svg>