<?xml version="1.0" encoding="UTF-8"?>
<svg id="Layer_2" data-name="Layer 2" xmlns="http://www.w3.org/2000/svg" viewBox="0 0 105.47 66.24">
  <defs>
    <style>
      .cls-1 {
        fill: #231f20;
        stroke-width: 0px;
      }
    </style>
  </defs>
  <g id="Layer_1-2" data-name="Layer 1">
    <path class="cls-1" d="m67.18,16.42c0,4.29-1.49,8.82-4.46,13.61-3.94,6.3-9.66,11.19-17.16,14.66-6.91,3.19-14.34,4.78-22.29,4.78h-11.6L24.4,13.39h12.69l-10.79,30.45c4.62,0,9.19-1.42,13.73-4.25s7.85-6.34,9.93-10.51c1.88-3.68,2.81-6.75,2.81-9.21,0-4.03-1.12-6.93-3.38-8.68-2.02-1.55-5.11-2.32-9.28-2.32H6.11L11.53,0h34.03c5.88,0,10.78,1.24,14.7,3.73,4.62,2.93,6.93,7.16,6.93,12.69Z"/>
    <path class="cls-1" d="m11.01,28.7l-5.01-10.45,10.45-5.01"/>
    <path class="cls-1" d="m5.01,49.36L0,38.91l10.45-5.01"/>
    <path class="cls-1" d="m57.79,49.76h-8.51c-2.14,0-4,.37-5.59,1.12-2.06.97-3.09,2.42-3.09,4.33,0,2.16,1.42,3.85,4.27,5.07,2.2.94,4.55,1.4,7.05,1.4,3.17,0,5.82-.7,7.94-2.09,2.46-1.6,3.7-3.91,3.7-6.91,0-2.06-.78-5.02-2.35-8.88-1.57-3.86,9.94-6.69,11.65-2.38,1.71,4.32,2.56,7.7,2.56,10.14,0,5.23-2.89,9.16-8.68,11.78-4.32,1.93-9.37,2.89-15.16,2.89-5.29,0-9.98-.74-14.07-2.21-5.75-2.06-8.62-5.23-8.62-9.51,0-6.23,5.3-9.34,15.9-9.34l13.01,4.58Z"/>
    <path class="cls-1" d="m76.56,36.16h8.51c2.14,0,4-.37,5.59-1.12,2.06-.97,3.09-2.42,3.09-4.33,0-2.16-1.42-3.85-4.27-5.07-2.2-.94-4.55-1.4-7.05-1.4-3.17,0-5.82.7-7.94,2.09-2.46,1.6-3.7,3.91-3.7,6.91,0,2.06.78,5.02,2.35,8.88,1.57,3.86-9.94,6.69-11.65,2.38-1.71-4.32-2.56-7.7-2.56-10.14,0-5.23,2.89-9.16,8.68-11.78,4.32-1.93,9.37-2.89,15.16-2.89,5.29,0,9.98.74,14.07,2.21,5.75,2.06,8.62,5.23,8.62,9.51,0,6.23-5.3,9.34-15.9,9.34l-13.01-4.58Z"/>
  </g>
</svg>