<?xml version="1.0" encoding="UTF-8"?>
<svg id="Layer_2" data-name="Layer 2" xmlns="http://www.w3.org/2000/svg" viewBox="0 0 492.38 668.23">
  <defs>
    <style>
      .cls-1 {
        fill: #fed5b5;
      }

      .cls-1, .cls-2, .cls-3, .cls-4, .cls-5, .cls-6, .cls-7, .cls-8, .cls-9 {
        stroke-width: 0px;
      }

      .cls-2 {
        fill: #403e3c;
      }

      .cls-3 {
        fill: #d4c7c6;
      }

      .cls-4 {
        fill: #885346;
      }

      .cls-5 {
        fill: #231f20;
      }

      .cls-6 {
        fill: #198241;
      }

      .cls-7 {
        fill: #f4b656;
      }

      .cls-8 {
        fill: #f4a43f;
      }

      .cls-9 {
        fill: #4b4b4c;
      }
    </style>
  </defs>
  <g id="Layer_1-2" data-name="Layer 1">
    <rect class="cls-4" x="211.02" y="35.17" width="35.17" height="35.17"/>
    <rect class="cls-5" x="175.85" y="35.17" width="35.17" height="35.17"/>
    <rect class="cls-5" x="211.02" width="35.17" height="35.17"/>
    <rect class="cls-5" x="140.68" y="35.17" width="35.17" height="35.17"/>
    <rect class="cls-5" x="316.53" y="35.17" width="35.17" height="35.17"/>
    <rect class="cls-5" x="281.36" y="35.17" width="35.17" height="35.17"/>
    <rect class="cls-5" x="246.19" y="35.17" width="35.17" height="35.17"/>
    <rect class="cls-5" x="105.51" y="70.34" width="35.17" height="35.17"/>
    <rect class="cls-5" x="351.7" y="70.34" width="35.17" height="35.17"/>
    <rect class="cls-5" x="70.34" y="105.51" width="35.17" height="35.17"/>
    <rect class="cls-5" x="70.34" y="140.68" width="35.17" height="35.17"/>
    <rect class="cls-5" x="386.87" y="105.51" width="35.17" height="35.17"/>
    <rect class="cls-5" x="386.87" y="140.68" width="35.17" height="35.17"/>
    <rect class="cls-5" x="35.17" y="175.85" width="35.17" height="35.17"/>
    <rect class="cls-5" x="35.17" y="211.02" width="35.17" height="35.17"/>
    <rect class="cls-4" x="70.34" y="246.19" width="35.17" height="35.17"/>
    <rect class="cls-4" x="70.34" y="281.36" width="35.17" height="35.17"/>
    <rect class="cls-4" x="386.87" y="281.36" width="35.17" height="35.17"/>
    <rect class="cls-4" x="386.87" y="246.19" width="35.17" height="35.17"/>
    <rect class="cls-4" x="140.68" y="70.34" width="35.17" height="35.17"/>
    <rect class="cls-4" x="175.85" y="70.34" width="35.17" height="35.17"/>
    <rect class="cls-4" x="211.02" y="70.34" width="35.17" height="35.17"/>
    <rect class="cls-4" x="246.19" y="70.34" width="35.17" height="35.17"/>
    <rect class="cls-4" x="281.36" y="70.34" width="35.17" height="35.17"/>
    <rect class="cls-4" x="316.53" y="70.34" width="35.17" height="35.17"/>
    <rect class="cls-4" x="105.51" y="105.51" width="35.17" height="35.17"/>
    <rect class="cls-4" x="140.68" y="105.51" width="35.17" height="35.17"/>
    <rect class="cls-4" x="175.85" y="105.51" width="35.17" height="35.17"/>
    <rect class="cls-4" x="211.02" y="105.51" width="35.17" height="35.17"/>
    <rect class="cls-4" x="246.19" y="105.51" width="35.17" height="35.17"/>
    <rect class="cls-4" x="281.36" y="105.51" width="35.17" height="35.17"/>
    <rect class="cls-4" x="316.53" y="105.51" width="35.17" height="35.17"/>
    <rect class="cls-4" x="351.7" y="105.51" width="35.17" height="35.17"/>
    <rect class="cls-4" x="105.51" y="140.68" width="35.17" height="35.17"/>
    <rect class="cls-4" x="140.68" y="140.68" width="35.17" height="35.17"/>
    <rect class="cls-4" x="175.85" y="140.68" width="35.17" height="35.17"/>
    <rect class="cls-4" x="211.02" y="140.68" width="35.17" height="35.17"/>
    <rect class="cls-4" x="246.19" y="140.68" width="35.17" height="35.17"/>
    <rect class="cls-4" x="70.34" y="175.85" width="35.17" height="35.17"/>
    <rect class="cls-4" x="70.34" y="211.02" width="35.17" height="35.17"/>
    <rect class="cls-4" x="105.51" y="175.85" width="35.17" height="35.17"/>
    <rect class="cls-4" x="140.68" y="175.85" width="35.17" height="35.17"/>
    <rect class="cls-4" x="175.85" y="175.85" width="35.17" height="35.17"/>
    <rect class="cls-4" x="140.68" y="211.02" width="35.17" height="35.17"/>
    <rect class="cls-4" x="211.02" y="175.85" width="35.17" height="35.17"/>
    <rect class="cls-4" x="175.85" y="527.55" width="35.17" height="35.17"/>
    <rect class="cls-2" x="175.85" y="562.72" width="35.17" height="35.17"/>
    <rect class="cls-9" x="140.68" y="597.89" width="35.17" height="35.17"/>
    <rect class="cls-2" x="140.68" y="562.72" width="35.17" height="35.17"/>
    <rect class="cls-2" x="105.51" y="562.72" width="35.17" height="35.17"/>
    <rect class="cls-9" x="175.85" y="597.89" width="35.17" height="35.17"/>
    <rect class="cls-9" x="105.51" y="597.89" width="35.17" height="35.17"/>
    <rect class="cls-2" x="211.02" y="562.72" width="35.17" height="35.17"/>
    <rect class="cls-2" x="246.19" y="562.72" width="35.17" height="35.17"/>
    <rect class="cls-2" x="281.36" y="562.72" width="35.17" height="35.17"/>
    <rect class="cls-9" x="281.36" y="597.89" width="35.17" height="35.17"/>
    <rect class="cls-9" x="316.53" y="597.89" width="35.17" height="35.17"/>
    <rect class="cls-9" x="351.7" y="597.89" width="35.17" height="35.17"/>
    <rect class="cls-2" x="351.7" y="562.72" width="35.17" height="35.17"/>
    <rect class="cls-2" x="316.53" y="562.72" width="35.17" height="35.17"/>
    <rect class="cls-4" x="211.02" y="527.55" width="35.17" height="35.17"/>
    <rect class="cls-4" x="246.19" y="527.55" width="35.17" height="35.17"/>
    <rect class="cls-4" x="281.36" y="527.55" width="35.17" height="35.17"/>
    <rect class="cls-4" x="281.36" y="140.68" width="35.17" height="35.17"/>
    <rect class="cls-4" x="316.53" y="140.68" width="35.17" height="35.17"/>
    <rect class="cls-4" x="316.53" y="175.85" width="35.17" height="35.17"/>
    <rect class="cls-4" x="386.87" y="175.85" width="35.17" height="35.17"/>
    <rect class="cls-4" x="386.87" y="211.02" width="35.17" height="35.17"/>
    <rect class="cls-4" x="281.36" y="211.02" width="35.17" height="35.17"/>
    <rect class="cls-4" x="351.7" y="140.68" width="35.17" height="35.17"/>
    <rect class="cls-5" x="422.04" y="175.85" width="35.17" height="35.17"/>
    <rect class="cls-5" x="422.04" y="211.02" width="35.17" height="35.17"/>
    <rect class="cls-5" x="0" y="246.19" width="35.17" height="35.17"/>
    <rect class="cls-5" y="281.36" width="35.17" height="35.17"/>
    <rect class="cls-5" x="457.21" y="246.19" width="35.17" height="35.17"/>
    <rect class="cls-5" x="457.21" y="281.36" width="35.17" height="35.17"/>
    <rect class="cls-5" x="35.17" y="316.53" width="35.17" height="35.17"/>
    <rect class="cls-5" x="422.04" y="316.53" width="35.17" height="35.17"/>
    <rect class="cls-5" x="70.34" y="351.7" width="35.17" height="35.17"/>
    <rect class="cls-5" x="70.34" y="386.87" width="35.17" height="35.17"/>
    <rect class="cls-5" x="211.02" y="422.04" width="35.17" height="35.17"/>
    <rect class="cls-5" x="246.19" y="422.04" width="35.17" height="35.17"/>
    <rect class="cls-5" x="35.17" y="422.04" width="35.17" height="35.17"/>
    <rect class="cls-5" x="386.87" y="351.7" width="35.17" height="35.17"/>
    <rect class="cls-5" x="386.87" y="386.87" width="35.17" height="35.17"/>
    <rect class="cls-5" x="422.04" y="422.04" width="35.17" height="35.17"/>
    <rect class="cls-5" x="0" y="457.21" width="35.17" height="35.17"/>
    <rect class="cls-5" x="0" y="492.38" width="35.17" height="35.17"/>
    <rect class="cls-5" x="35.17" y="527.55" width="35.17" height="35.17"/>
    <rect class="cls-5" x="457.21" y="457.21" width="35.17" height="35.17"/>
    <rect class="cls-5" x="457.21" y="492.38" width="35.17" height="35.17"/>
    <rect class="cls-5" x="422.04" y="527.55" width="35.17" height="35.17"/>
    <rect class="cls-5" x="386.87" y="562.72" width="35.17" height="35.17"/>
    <rect class="cls-5" x="386.87" y="597.89" width="35.17" height="35.17"/>
    <rect class="cls-5" x="70.34" y="562.72" width="35.17" height="35.17"/>
    <rect class="cls-5" x="70.34" y="597.89" width="35.17" height="35.17"/>
    <rect class="cls-5" x="140.68" y="633.06" width="35.17" height="35.17"/>
    <rect class="cls-5" x="105.51" y="633.06" width="35.17" height="35.17"/>
    <rect class="cls-5" x="175.85" y="633.06" width="35.17" height="35.17"/>
    <rect class="cls-5" x="316.53" y="633.06" width="35.17" height="35.17"/>
    <rect class="cls-5" x="281.36" y="633.06" width="35.17" height="35.17"/>
    <rect class="cls-5" x="351.7" y="633.06" width="35.17" height="35.17"/>
    <rect class="cls-5" x="70.34" y="527.55" width="35.17" height="35.17"/>
    <rect class="cls-5" x="386.87" y="527.55" width="35.17" height="35.17"/>
    <rect class="cls-5" x="211.02" y="597.89" width="35.17" height="35.17"/>
    <rect class="cls-5" x="246.19" y="597.89" width="35.17" height="35.17"/>
    <rect class="cls-1" x="35.17" y="246.19" width="35.17" height="35.17"/>
    <rect class="cls-1" x="105.51" y="211.02" width="35.17" height="35.17"/>
    <rect class="cls-1" x="105.51" y="246.19" width="35.17" height="35.17"/>
    <rect class="cls-1" x="105.51" y="281.36" width="35.17" height="35.17"/>
    <rect class="cls-1" x="35.17" y="492.38" width="35.17" height="35.17"/>
    <rect class="cls-1" x="35.17" y="457.21" width="35.17" height="35.17"/>
    <rect class="cls-1" x="70.34" y="492.38" width="35.17" height="35.17"/>
    <rect class="cls-1" x="422.04" y="492.38" width="35.17" height="35.17"/>
    <rect class="cls-1" x="386.87" y="492.38" width="35.17" height="35.17"/>
    <rect class="cls-1" x="422.04" y="457.21" width="35.17" height="35.17"/>
    <rect class="cls-1" x="140.68" y="281.36" width="35.17" height="35.17"/>
    <rect class="cls-1" x="140.68" y="246.19" width="35.17" height="35.17"/>
    <rect class="cls-1" x="175.85" y="246.19" width="35.17" height="35.17"/>
    <rect class="cls-1" x="175.85" y="211.02" width="35.17" height="35.17"/>
    <rect class="cls-1" x="211.02" y="211.02" width="35.17" height="35.17"/>
    <rect class="cls-1" x="246.19" y="211.02" width="35.17" height="35.17"/>
    <rect class="cls-1" x="246.19" y="175.85" width="35.17" height="35.17"/>
    <rect class="cls-1" x="281.36" y="175.85" width="35.17" height="35.17"/>
    <rect class="cls-1" x="351.7" y="175.85" width="35.17" height="35.17"/>
    <rect class="cls-1" x="351.7" y="211.02" width="35.17" height="35.17"/>
    <rect class="cls-1" x="316.53" y="211.02" width="35.17" height="35.17"/>
    <rect class="cls-1" x="316.53" y="246.19" width="35.17" height="35.17"/>
    <rect class="cls-1" x="351.7" y="246.19" width="35.17" height="35.17"/>
    <rect class="cls-1" x="281.36" y="246.19" width="35.17" height="35.17"/>
    <rect class="cls-1" x="246.19" y="246.19" width="35.17" height="35.17"/>
    <rect class="cls-1" x="211.02" y="246.19" width="35.17" height="35.17"/>
    <rect class="cls-1" x="211.02" y="281.36" width="35.17" height="35.17"/>
    <rect class="cls-1" x="246.19" y="281.36" width="35.17" height="35.17"/>
    <rect class="cls-1" x="316.53" y="281.36" width="35.17" height="35.17"/>
    <rect class="cls-1" x="351.7" y="281.36" width="35.17" height="35.17"/>
    <rect class="cls-1" x="35.17" y="281.36" width="35.17" height="35.17"/>
    <rect class="cls-1" x="140.68" y="316.53" width="35.17" height="35.17"/>
    <rect class="cls-1" x="211.02" y="316.53" width="35.17" height="35.17"/>
    <rect class="cls-1" x="246.19" y="316.53" width="35.17" height="35.17"/>
    <rect class="cls-1" x="316.53" y="316.53" width="35.17" height="35.17"/>
    <rect class="cls-1" x="246.19" y="351.7" width="35.17" height="35.17"/>
    <rect class="cls-1" x="211.02" y="351.7" width="35.17" height="35.17"/>
    <rect class="cls-3" x="211.02" y="457.21" width="35.17" height="35.17"/>
    <rect class="cls-3" x="246.19" y="457.21" width="35.17" height="35.17"/>
    <rect class="cls-3" x="246.19" y="492.38" width="35.17" height="35.17"/>
    <rect class="cls-3" x="211.02" y="492.38" width="35.17" height="35.17"/>
    <rect class="cls-1" x="422.04" y="246.19" width="35.17" height="35.17"/>
    <rect class="cls-1" x="422.04" y="281.36" width="35.17" height="35.17"/>
    <rect class="cls-1" x="70.34" y="316.53" width="35.17" height="35.17"/>
    <rect class="cls-1" x="105.51" y="316.53" width="35.17" height="35.17"/>
    <rect class="cls-1" x="105.51" y="351.7" width="35.17" height="35.17"/>
    <rect class="cls-1" x="140.68" y="351.7" width="35.17" height="35.17"/>
    <rect class="cls-1" x="175.85" y="351.7" width="35.17" height="35.17"/>
    <rect class="cls-1" x="175.85" y="386.87" width="35.17" height="35.17"/>
    <rect class="cls-8" x="175.85" y="457.21" width="35.17" height="35.17"/>
    <rect class="cls-7" x="175.85" y="492.38" width="35.17" height="35.17"/>
    <rect class="cls-8" x="140.68" y="527.55" width="35.17" height="35.17"/>
    <rect class="cls-8" x="105.51" y="527.55" width="35.17" height="35.17"/>
    <rect class="cls-8" x="105.51" y="492.38" width="35.17" height="35.17"/>
    <rect class="cls-7" x="105.51" y="457.21" width="35.17" height="35.17"/>
    <rect class="cls-8" x="140.68" y="457.21" width="35.17" height="35.17"/>
    <rect class="cls-8" x="140.68" y="422.04" width="35.17" height="35.17"/>
    <rect class="cls-8" x="105.51" y="422.04" width="35.17" height="35.17"/>
    <rect class="cls-8" x="70.34" y="422.04" width="35.17" height="35.17"/>
    <rect class="cls-8" x="70.34" y="457.21" width="35.17" height="35.17"/>
    <rect class="cls-7" x="140.68" y="492.38" width="35.17" height="35.17"/>
    <rect class="cls-8" x="175.85" y="422.04" width="35.17" height="35.17"/>
    <rect class="cls-8" x="140.68" y="386.87" width="35.17" height="35.17"/>
    <rect class="cls-8" x="351.7" y="386.87" width="35.17" height="35.17"/>
    <rect class="cls-8" x="316.53" y="386.87" width="35.17" height="35.17"/>
    <rect class="cls-8" x="105.51" y="386.87" width="35.17" height="35.17"/>
    <rect class="cls-8" x="281.36" y="422.04" width="35.17" height="35.17"/>
    <rect class="cls-8" x="316.53" y="422.04" width="35.17" height="35.17"/>
    <rect class="cls-8" x="351.7" y="422.04" width="35.17" height="35.17"/>
    <rect class="cls-8" x="386.87" y="422.04" width="35.17" height="35.17"/>
    <rect class="cls-8" x="386.87" y="457.21" width="35.17" height="35.17"/>
    <rect class="cls-7" x="351.7" y="457.21" width="35.17" height="35.17" rx=".46" ry=".46"/>
    <rect class="cls-8" x="316.53" y="457.21" width="35.17" height="35.17" rx=".46" ry=".46"/>
    <rect class="cls-7" x="316.53" y="492.38" width="35.17" height="35.17" rx=".46" ry=".46"/>
    <rect class="cls-8" x="351.7" y="492.38" width="35.17" height="35.17" rx=".46" ry=".46"/>
    <rect class="cls-8" x="351.7" y="527.55" width="35.17" height="35.17" rx=".46" ry=".46"/>
    <rect class="cls-8" x="281.36" y="457.21" width="35.17" height="35.17"/>
    <rect class="cls-7" x="281.36" y="492.38" width="35.17" height="35.17"/>
    <rect class="cls-8" x="316.53" y="527.55" width="35.17" height="35.17"/>
    <rect class="cls-1" x="211.02" y="386.87" width="35.17" height="35.17"/>
    <rect class="cls-1" x="386.87" y="316.53" width="35.17" height="35.17"/>
    <rect class="cls-1" x="351.7" y="316.53" width="35.17" height="35.17"/>
    <rect class="cls-1" x="351.7" y="351.7" width="35.17" height="35.17"/>
    <rect class="cls-1" x="316.53" y="351.7" width="35.17" height="35.17"/>
    <rect class="cls-1" x="281.36" y="351.7" width="35.17" height="35.17"/>
    <rect class="cls-1" x="281.36" y="386.87" width="35.17" height="35.17"/>
    <rect class="cls-1" x="246.19" y="386.87" width="35.17" height="35.17"/>
    <rect class="cls-6" x="175.85" y="316.53" width="35.17" height="35.17"/>
    <rect class="cls-6" x="175.85" y="281.36" width="35.17" height="35.17"/>
    <rect class="cls-6" x="281.36" y="316.53" width="35.17" height="35.17"/>
    <rect class="cls-6" x="281.36" y="281.36" width="35.17" height="35.17"/>
  </g>
</svg>