<?xml version="1.0" standalone="no"?>
<!DOCTYPE svg PUBLIC "-//W3C//DTD SVG 20010904//EN"
 "http://www.w3.org/TR/2001/REC-SVG-20010904/DTD/svg10.dtd">
<svg version="1.0" xmlns="http://www.w3.org/2000/svg"
 width="634.000000pt" height="634.000000pt" viewBox="0 0 634.000000 634.000000"
 preserveAspectRatio="xMidYMid meet">
<metadata>
Created by potrace 1.14, written by Peter Selinger 2001-2017
</metadata>
<g transform="translate(0.000000,634.000000) scale(0.100000,-0.100000)"
fill="#000000" stroke="none">
<path d="M2117 6333 c-4 -3 -7 -82 -7 -174 l0 -169 -172 -2 -173 -3 0 -178 0
-177 -177 0 -178 0 0 -175 0 -175 -175 0 -175 0 0 -525 0 -525 -175 0 -175 0
0 -530 0 -530 -175 0 -175 0 0 -530 0 -530 175 0 175 0 0 -350 0 -350 175 0
175 0 0 -175 0 -175 175 0 175 0 2 -352 3 -353 173 -3 172 -2 0 530 0 530
-350 0 -350 0 0 355 0 355 175 0 175 0 0 175 0 175 355 0 355 0 0 -175 0 -175
880 -2 c484 -2 958 -3 1053 -3 l172 0 3 177 2 178 350 0 350 0 0 -175 0 -175
175 0 175 0 0 -355 0 -355 -350 0 -350 0 0 -350 0 -350 -177 0 c-98 1 -288 -2
-423 -4 -135 -3 -291 -5 -347 -6 l-103 0 0 -170 0 -170 168 -3 167 -3 -172 -2
-173 -2 0 -175 0 -175 530 0 530 0 0 175 0 175 -157 3 c-87 2 -8 1 175 -1
l332 -5 0 357 0 356 175 0 175 0 0 175 0 175 180 0 180 0 0 350 0 350 175 0
175 0 0 530 0 530 -175 0 -175 0 -2 528 -3 527 -175 0 -175 0 -3 -352 -2 -353
-175 0 -175 0 0 -175 0 -175 -175 0 -175 0 0 -175 0 -175 -175 0 -175 0 0
-173 0 -174 -262 -6 c-339 -9 -1247 -9 -1585 0 l-263 6 0 174 0 173 -180 0
-180 0 0 175 0 175 -175 0 -175 0 0 175 0 175 -175 0 -175 0 0 355 0 355 178
-2 177 -3 3 -172 2 -173 170 0 170 0 0 525 0 525 -175 0 -175 0 0 175 0 175
180 0 180 0 0 -175 0 -175 175 0 175 0 0 -175 0 -175 1230 0 1230 0 0 -350 0
-350 175 0 175 0 0 175 0 175 175 0 175 0 0 350 0 350 -175 0 -175 0 0 350 0
350 -175 0 -175 0 0 180 0 180 -175 0 -175 0 0 175 0 175 -1053 0 c-580 0
-1057 -3 -1060 -7z m1995 -5980 c-40 -2 -103 -2 -140 0 -37 2 -4 3 73 3 77 0
107 -2 67 -3z"/>
<path d="M1770 3695 l0 -175 170 0 170 0 0 175 0 175 -170 0 -170 0 0 -175z"/>
<path d="M2470 3520 l0 -350 175 0 175 0 0 350 0 350 -175 0 -175 0 0 -350z"/>
<path d="M3530 3520 l0 -350 170 0 170 0 0 350 0 350 -170 0 -170 0 0 -350z"/>
<path d="M4230 3695 l0 -175 173 2 172 3 3 173 2 172 -175 0 -175 0 0 -175z"/>
<path d="M1420 1940 l0 -170 170 0 170 0 0 170 0 170 -170 0 -170 0 0 -170z"/>
<path d="M4580 1940 l0 -170 175 0 175 0 0 170 0 170 -175 0 -175 0 0 -170z"/>
<path d="M1770 534 l0 -174 168 -3 167 -3 -173 -2 -172 -2 2 -173 3 -172 528
-3 527 -2 0 175 0 175 -347 3 c-192 2 -34 1 350 -1 l697 -4 0 180 0 180 -875
0 -875 0 0 -174z"/>
</g>
</svg>
